<?xml version="1.0" encoding="UTF-8"?>
<svg width="48px" height="28px" viewBox="0 0 48 28" version="1.1" xmlns="http://www.w3.org/2000/svg" xmlns:xlink="http://www.w3.org/1999/xlink">
    <!-- Generator: Sketch 57.1 (83088) - https://sketch.com -->
    <title>Slice 1</title>
    <desc>Created with Sketch.</desc>
    <defs>
        <linearGradient x1="50%" y1="0%" x2="50%" y2="100%" id="linearGradient-1">
            <stop stop-color="#FAD961" offset="0%"></stop>
            <stop stop-color="#F76B1C" offset="100%"></stop>
        </linearGradient>
        <linearGradient x1="50%" y1="183.573515%" x2="50%" y2="3.061617e-15%" id="linearGradient-2">
            <stop stop-color="#FF7A00" offset="0%"></stop>
            <stop stop-color="#FFE300" offset="100%"></stop>
        </linearGradient>
        <linearGradient x1="0.25781251%" y1="49.7500002%" x2="101.257813%" y2="49.7500002%" id="linearGradient-3">
            <stop stop-color="#3023AE" offset="0%"></stop>
            <stop stop-color="#53A0FD" offset="47.5247532%"></stop>
            <stop stop-color="#B4EC51" offset="100%"></stop>
        </linearGradient>
    </defs>
    <g id="Page-1" stroke="none" stroke-width="1" fill="none" fill-rule="evenodd">
        <g id="Group-5">
            <g id="Group" transform="translate(0.000000, 0.500000)">
                <path d="M18.4236821,2.60789241 C19.9772077,1.16570503 22.4042315,1.25045772 23.853372,2.79749945 L39.0180885,18.9867157 C40.4588553,20.524818 40.3799493,22.9396685 38.841847,24.3804353 C38.8376834,24.3843354 38.833511,24.3882262 38.82933,24.3921076 C37.2758043,25.834295 34.8487805,25.7495423 33.39964,24.2025006 L18.2349235,8.01328427 C16.7941568,6.475182 16.8730628,4.06033151 18.411165,2.61956473 C18.4153287,2.61566461 18.419501,2.61177382 18.4236821,2.60789241 Z" id="Rectangle" fill="url(#linearGradient-1)"></path>
                <path d="M23.2148721,2.60789241 C21.6613465,1.16570503 19.2343227,1.25045772 17.7851822,2.79749945 L2.6204657,18.9867157 C1.17969893,20.524818 1.25860494,22.9396685 2.79670722,24.3804353 C2.80087083,24.3843354 2.80504318,24.3882262 2.80922424,24.3921076 C4.36274989,25.834295 6.78977367,25.7495423 8.23891419,24.2025006 L23.4036307,8.01328427 C24.8443975,6.475182 24.7654914,4.06033151 23.2273892,2.61956473 C23.2232256,2.61566461 23.2190532,2.61177382 23.2148721,2.60789241 Z" id="Rectangle" fill="url(#linearGradient-2)" opacity="0.977353051"></path>
                <path d="M45.1663804,11.8333102 C43.6013166,10.3741806 41.1497957,10.4597896 39.690328,12.0245382 L33.2930353,18.8833094 C31.8339751,20.4476211 31.9192983,22.8985483 33.4836101,24.3576085 C33.483814,24.3577987 33.484018,24.3579889 33.484222,24.3581791 C35.0492858,25.8173088 37.5008067,25.7316998 38.9602744,24.1669512 L45.3575671,17.30818 C46.8166273,15.7438682 46.7313041,13.292941 45.1669923,11.8338808 C45.1667884,11.8336906 45.1665844,11.8335004 45.1663804,11.8333102 Z" id="Rectangle" fill="#0C77D3"></path>
                <path d="M2.80922424,2.60789241 C4.36274989,1.16570503 6.78977367,1.25045772 8.23891419,2.79749945 L23.4036307,18.9867157 C24.8443975,20.524818 24.7654914,22.9396685 23.2273892,24.3804353 C23.2232256,24.3843354 23.2190532,24.3882262 23.2148721,24.3921076 C21.6613465,25.834295 19.2343227,25.7495423 17.7851822,24.2025006 L2.6204657,8.01328427 C1.17969893,6.475182 1.25860494,4.06033151 2.79670722,2.61956473 C2.80087083,2.61566461 2.80504318,2.61177382 2.80922424,2.60789241 Z" id="Rectangle" fill="url(#linearGradient-3)"></path>
            </g>
        </g>
    </g>
</svg>