<?xml version="1.0" encoding="UTF-8"?>
<svg width="188px" height="111px" viewBox="0 0 188 111" version="1.1" xmlns="http://www.w3.org/2000/svg" xmlns:xlink="http://www.w3.org/1999/xlink">
    <!-- Generator: Sketch 57.1 (83088) - https://sketch.com -->
    <title>Slice 1</title>
    <desc>Created with Sketch.</desc>
    <defs>
        <linearGradient x1="50%" y1="0%" x2="50%" y2="100%" id="linearGradient-1">
            <stop stop-color="#FAD961" offset="0%"></stop>
            <stop stop-color="#F76B1C" offset="100%"></stop>
        </linearGradient>
        <linearGradient x1="50%" y1="183.573515%" x2="50%" y2="3.061617e-15%" id="linearGradient-2">
            <stop stop-color="#FF7A00" offset="0%"></stop>
            <stop stop-color="#FFE300" offset="100%"></stop>
        </linearGradient>
        <linearGradient x1="0.25781251%" y1="49.7500002%" x2="101.257813%" y2="49.7500002%" id="linearGradient-3">
            <stop stop-color="#3023AE" offset="0%"></stop>
            <stop stop-color="#53A0FD" offset="47.5247532%"></stop>
            <stop stop-color="#B4EC51" offset="100%"></stop>
        </linearGradient>
    </defs>
    <g id="Page-1" stroke="none" stroke-width="1" fill="none" fill-rule="evenodd">
        <g id="Group-5">
            <g id="Group">
                <path d="M67.107493,14.7984086 L77.3476489,5.35956575 C80.5697847,2.3895686 85.5816572,2.56457527 88.5887825,5.75208837 L157.530567,78.8294696 C160.5625,82.0432781 160.41506,87.1064517 157.201252,90.1383843 C157.17878,90.159584 157.156186,90.1806534 157.133471,90.2015914 L146.893315,99.6404343 C143.671179,102.610431 138.659307,102.435425 135.652181,99.2479116 L66.7103965,26.1705304 C63.6784639,22.9567219 63.8259034,17.8935483 67.0397119,14.8616157 C67.0621834,14.840416 67.0847775,14.8193466 67.107493,14.7984086 Z" id="Rectangle" fill="url(#linearGradient-1)"></path>
                <path d="M95.9768443,14.7984086 L85.7366884,5.35956575 C82.5145526,2.3895686 77.5026802,2.56457527 74.4955548,5.75208837 L5.55376997,78.8294696 C2.52183736,82.0432781 2.66927691,87.1064517 5.88308542,90.1383843 C5.90555688,90.159584 5.92815095,90.1806534 5.9508665,90.2015914 L16.1910224,99.6404343 C19.4131582,102.610431 24.4250307,102.435425 27.432156,99.2479116 L96.3739409,26.1705304 C99.4058735,22.9567219 99.2584339,17.8935483 96.0446254,14.8616157 C96.022154,14.840416 95.9995599,14.8193466 95.9768443,14.7984086 Z" id="Rectangle" fill="url(#linearGradient-2)" opacity="0.977353051"></path>
                <path d="M182.086148,50.8177175 L171.631263,41.1396194 C168.405701,38.1537138 163.375306,38.3293743 160.365882,41.5330046 L125.565771,78.5788615 C122.54071,81.7991384 122.698963,86.8619855 125.91924,89.887047 C125.93346,89.9004046 125.947728,89.9137101 125.962045,89.9269633 L136.41693,99.6050615 C139.642492,102.590967 144.672887,102.415307 147.682311,99.2116763 L182.482422,62.1658194 C185.507483,58.9455424 185.34923,53.8826953 182.128953,50.8576338 C182.114733,50.8442763 182.100465,50.8309707 182.086148,50.8177175 Z" id="Rectangle" fill="#0C77D3"></path>
                <path d="M5.9508665,14.7984086 L16.1910224,5.35956575 C19.4131582,2.3895686 24.4250307,2.56457527 27.432156,5.75208837 L96.3739409,78.8294696 C99.4058735,82.0432781 99.2584339,87.1064517 96.0446254,90.1383843 C96.022154,90.159584 95.9995599,90.1806534 95.9768443,90.2015914 L85.7366884,99.6404343 C82.5145526,102.610431 77.5026802,102.435425 74.4955548,99.2479116 L5.55376997,26.1705304 C2.52183736,22.9567219 2.66927691,17.8935483 5.88308542,14.8616157 C5.90555688,14.840416 5.92815095,14.8193466 5.9508665,14.7984086 Z" id="Rectangle" fill="url(#linearGradient-3)"></path>
            </g>
        </g>
    </g>
</svg>